<?xml version="1.0" encoding="UTF-8"?>
<!DOCTYPE svg PUBLIC "-//W3C//DTD SVG 1.1//EN" "http://www.w3.org/Graphics/SVG/1.1/DTD/svg11.dtd">
<!-- Creator: CorelDRAW -->
<svg xmlns="http://www.w3.org/2000/svg" xml:space="preserve" width="2.3708mm" height="2.3705mm" version="1.1" style="shape-rendering:geometricPrecision; text-rendering:geometricPrecision; image-rendering:optimizeQuality; fill-rule:evenodd; clip-rule:evenodd"
viewBox="0 0 0.66 0.66"
 xmlns:xlink="http://www.w3.org/1999/xlink"
 xmlns:xodm="http://www.corel.com/coreldraw/odm/2003">
 <defs>
  <style type="text/css">
   <![CDATA[
    .fil0 {fill:#1C1C1C}
   ]]>
  </style>
 </defs>
 <g id="Layer_x0020_1">
  <metadata id="CorelCorpID_0Corel-Layer"/>
  <g id="_1982761003680">
   <path class="fil0" d="M0.17 0.06c0.02,-0 0.24,-0 0.27,-0 0.05,0 0.07,0 0.11,0.03 0.03,0.02 0.04,0.05 0.05,0.09 0,0.02 0,0.24 0,0.27 0,0.05 -0,0.07 -0.03,0.11 -0.02,0.02 -0.05,0.04 -0.09,0.05 -0.02,0 -0.24,0 -0.27,0 -0.05,0 -0.07,-0 -0.11,-0.03 -0.02,-0.02 -0.04,-0.05 -0.05,-0.09 -0,-0.02 -0,-0.24 -0,-0.27 0,-0.05 0,-0.07 0.03,-0.11 0.01,-0.01 0.02,-0.02 0.04,-0.03 0.01,-0.01 0.03,-0.01 0.05,-0.02zm0.01 -0.06c-0.04,0 -0.08,0.02 -0.11,0.04 -0.02,0.01 -0.03,0.03 -0.04,0.05 -0.01,0.02 -0.02,0.04 -0.02,0.06 -0.01,0.03 -0,0.12 -0,0.16 0,0.04 -0,0.13 0,0.16 0,0.08 0.07,0.16 0.15,0.18 0.03,0.01 0.12,0 0.16,0 0.05,0 0.11,0 0.16,-0 0.05,-0 0.09,-0.02 0.12,-0.05 0.02,-0.02 0.02,-0.02 0.04,-0.05 0.01,-0.02 0.02,-0.04 0.02,-0.06 0.01,-0.03 0,-0.12 0,-0.16 0,-0.05 0,-0.11 -0,-0.16 -0,-0.09 -0.07,-0.16 -0.15,-0.18 -0.03,-0.01 -0.12,-0 -0.16,-0 -0.05,0 -0.11,-0 -0.16,0z"/>
   <path class="fil0" d="M0.22 0.34c-0,-0.04 0.01,-0.06 0.03,-0.08 0.01,-0.02 0.05,-0.04 0.07,-0.04 0.09,-0.01 0.15,0.09 0.11,0.16 -0.03,0.05 -0.09,0.07 -0.15,0.04 -0.01,-0 -0.01,-0.01 -0.02,-0.01 -0.01,-0.01 -0.04,-0.04 -0.04,-0.07zm-0.06 0.01c0,0.03 0.02,0.07 0.04,0.09l0.02 0.02c0.02,0.01 0.03,0.02 0.05,0.03 0.02,0.01 0.05,0.01 0.07,0.01 0.04,-0 0.09,-0.03 0.11,-0.06 0.02,-0.02 0.02,-0.03 0.03,-0.05 0.01,-0.02 0.01,-0.05 0.01,-0.07 -0,-0.03 -0.02,-0.07 -0.04,-0.09 -0,-0 -0,-0 -0.01,-0.01l-0.02 -0.02c-0,-0 -0,-0 -0.01,-0 -0.03,-0.03 -0.08,-0.04 -0.12,-0.04 -0.03,0 -0.07,0.02 -0.09,0.04l-0.02 0.02 -0.02 0.03c-0.02,0.03 -0.02,0.06 -0.02,0.1z"/>
   <path class="fil0" d="M0.5 0.12c-0.02,0.01 -0.03,0.02 -0.03,0.05 0.01,0.05 0.09,0.04 0.08,-0.02 -0,-0.01 -0.01,-0.02 -0.02,-0.02 -0.01,-0.01 -0.02,-0.01 -0.03,-0.01z"/>
  </g>
 </g>
</svg>
